<svg xmlns="http://www.w3.org/2000/svg" viewBox="0 0 565.68 227.02"><defs><style>.cls-1,.cls-2,.cls-4{fill:#fff;}.cls-2{font-size:149.35px;font-family:LiberatorMedium, Liberator;}.cls-3{fill:#f58326;}.cls-4{font-size:18px;font-family:Montserrat-Bold, Montserrat;font-weight:700;}.cls-5{letter-spacing:-0.02em;}.cls-6{letter-spacing:-0.02em;}.cls-7{letter-spacing:0em;}.cls-8{fill:none;stroke:#fff;stroke-miterlimit:10;}</style></defs><title>Asset 1</title><g id="Layer_2" data-name="Layer 2"><g id="Layer_1-2" data-name="Layer 1"><path class="cls-1" d="M166.43,21.22c.9,4.57-.4,7.89-3.84,10q4.77,4.32,9.42,8.72c-2.64.51-5.29,1-7.93,1.59q-4.14-3.87-8.38-7.69l-4.52,1,2.07,9q-3.21.73-6.41,1.5-3.39-14.14-6.79-28.28c3.8-.91,7.62-1.79,11.43-2.63,4.7-1,8.21-1,10.52.12S165.77,17.9,166.43,21.22Zm-7.31,5a4.32,4.32,0,0,0,.53-3.62,3.56,3.56,0,0,0-2-2.88,8.63,8.63,0,0,0-4.68.11L148,21c.64,2.8,1.27,5.6,1.91,8.4l4.81-1.08Q158.12,27.56,159.12,26.24Z"/><path class="cls-1" d="M199.3,31.22a16.62,16.62,0,0,1-21.81,3.58,14.38,14.38,0,0,1-6.42-9.69,13.8,13.8,0,0,1,2.56-11.38A17.07,17.07,0,0,1,196.23,10a13.86,13.86,0,0,1,6.06,10A14.37,14.37,0,0,1,199.3,31.22ZM195.51,21A9.22,9.22,0,0,0,192,14.8a8.83,8.83,0,0,0-12.69,2.08,9.23,9.23,0,0,0-1.4,7,9.41,9.41,0,0,0,3.68,6.07,8.71,8.71,0,0,0,12.42-2A9.38,9.38,0,0,0,195.51,21Z"/><path class="cls-1" d="M221.52,26.69a10,10,0,0,0,7.58-4.56q2.33,1.94,4.61,3.89a16.4,16.4,0,0,1-22.85,3.75,14.39,14.39,0,0,1-5.79-10.06,14,14,0,0,1,3.21-11.3A15.89,15.89,0,0,1,219.16,2.8,16.21,16.21,0,0,1,232.26,7c-1.28,1.64-2.54,3.28-3.8,4.93a9.93,9.93,0,0,0-8.34-3,9.49,9.49,0,0,0-6.26,3.1,8.13,8.13,0,0,0-1.92,6.73,8.76,8.76,0,0,0,3.27,6.17A8.49,8.49,0,0,0,221.52,26.69Z"/><path class="cls-1" d="M236,1.91c2.28-.18,4.56-.34,6.84-.5l.81,11.92Q248.91,7,254.42.74q4.25-.21,8.48-.36Q257,7,251.39,13.77c1.11,1.33,3.15,3.8,6.08,7.46s5,6.41,6.45,8.22c-2.54.08-5.08.19-7.62.31q-4.58-5.52-9.3-11-1.4,1.71-2.77,3.43c.19,2.74.37,5.48.56,8.22-2.18.15-4.36.3-6.53.48Z"/><path class="cls-1" d="M288.24,0c0,1.93,0,3.86,0,5.78q-7.57,0-15.16.1c0,2,.07,4,.11,6q6.75-.12,13.51-.1c0,1.84,0,3.69,0,5.53q-6.69,0-13.38.11,0,3,.11,6,7.61-.15,15.2-.1c0,1.92,0,3.83,0,5.74q-10.8-.06-21.59.26L266.07.28Q277.15-.05,288.24,0Z"/><path class="cls-1" d="M306.55,6l-.84,23.45q-3.27-.12-6.54-.2.3-11.73.58-23.46-4.31-.1-8.63-.15L291.18,0q12.15.14,24.27.74c-.09,1.87-.18,3.74-.28,5.61Q310.87,6.16,306.55,6Z"/><path class="cls-1" d="M341.71,26.08a10,10,0,0,0,8.34-2.95l3.74,4.74A16.41,16.41,0,0,1,330.65,27a14.41,14.41,0,0,1-3.65-11,13.93,13.93,0,0,1,5.41-10.42A15.82,15.82,0,0,1,344.18,2.2a16.21,16.21,0,0,1,12,6.76q-2.37,2-4.71,4.07a9.9,9.9,0,0,0-7.57-4.63,9.42,9.42,0,0,0-6.75,1.79,8.1,8.1,0,0,0-3.23,6.2,8.71,8.71,0,0,0,2,6.69A8.46,8.46,0,0,0,341.71,26.08Z"/><path class="cls-1" d="M362.37,4.9q3.42.44,6.82.9-2,14.4-4,28.81c-2.17-.3-4.33-.59-6.5-.86Q360.55,19.32,362.37,4.9Z"/><path class="cls-1" d="M389.07,14.57l-4,23.12-6.48-1.08q1.88-11.58,3.74-23.17-4.27-.67-8.55-1.31l.81-5.56q12,1.77,24,4c-.34,1.84-.69,3.68-1,5.52Q393.34,15.31,389.07,14.57Z"/><path class="cls-1" d="M412.47,43.09,406,41.7l2.37-11.23q-3.29-9.69-6.87-19.34,3.66.7,7.32,1.46,2.19,6,4.26,12,4.33-4.61,8.8-9.13,3.65.82,7.29,1.7Q421.94,24.42,415,31.88Z"/><text class="cls-2" transform="translate(0 174.02)">Cre</text><text class="cls-2" transform="translate(315.08 174.02)">TIVE</text><polygon class="cls-3" points="280.39 52.65 270.04 88.5 274.08 153.38 287.52 153.38 292 88.23 280.39 52.65"/><polygon class="cls-3" points="270.6 111.46 241.7 170.84 274.27 152.78 270.6 111.46"/><polygon class="cls-3" points="290.56 112.57 319.06 170.84 286.49 152.78 290.56 112.57"/><path class="cls-1" d="M291.24,108.93l31.63,66.25-36.54-20.42H274.87l-37.21,20.59L270,108.59,268.83,90l.05-.54,5-19.51,6.64-22.36,6.77,22.36,5,19.51.05.54-1.14,18.94Zm-6.09,42.32L287,121.34l1.9-31.3-4.94-19.23-3.32-12.92-3.32,12.92-5,19.23,1.9,31.3,1.82,29.91h9.09ZM290.81,116l-.34,5.54L288.62,152l27.94,16.58L290.81,116Zm-18.22,36-1.85-30.49-.35-5.92L244.1,168.79Z"/><path class="cls-1" d="M276.37,163.07a14.65,14.65,0,0,1,.49,2,28,28,0,0,1,.36,4.49,26.68,26.68,0,0,1-.36,4.49,12.72,12.72,0,0,1-.49,2,12.72,12.72,0,0,1-.49-2,25.67,25.67,0,0,1-.36-4.49,26.86,26.86,0,0,1,.36-4.49A13.09,13.09,0,0,1,276.37,163.07Z"/><path class="cls-1" d="M280.34,167.45a12.72,12.72,0,0,1,.49,2,26.68,26.68,0,0,1,.36,4.49,25.84,25.84,0,0,1-.36,4.49,13.09,13.09,0,0,1-.49,2,14.65,14.65,0,0,1-.49-2,28,28,0,0,1-.36-4.49,26.59,26.59,0,0,1,.37-4.49A13.52,13.52,0,0,1,280.34,167.45Z"/><path class="cls-1" d="M284.16,163.07a14.65,14.65,0,0,1,.49,2,28,28,0,0,1,.36,4.49,26.68,26.68,0,0,1-.36,4.49,12.72,12.72,0,0,1-.49,2,12.72,12.72,0,0,1-.49-2,28.18,28.18,0,0,1,0-9A13.09,13.09,0,0,1,284.16,163.07Z"/><text class="cls-4" transform="translate(111.64 222.52)">Q<tspan class="cls-5" x="14.89" y="0">U</tspan><tspan x="28.08" y="0">ALITY WEBSITES L</tspan><tspan class="cls-6" x="193.52" y="0">A</tspan><tspan class="cls-7" x="206.58" y="0">UNCHED HERE</tspan></text><line class="cls-8" x1="7.34" y1="216.7" x2="92.44" y2="216.7"/><line class="cls-8" x1="476.62" y1="216.7" x2="561.72" y2="216.7"/></g></g></svg>